<?xml version="1.0" encoding="utf-8"?>
<!-- Generator: Adobe Adobe Illustrator 24.2.0, SVG Export Plug-In . SVG Version: 6.00 Build 0)  -->
<svg version="1.1" xmlns="http://www.w3.org/2000/svg" xmlns:xlink="http://www.w3.org/1999/xlink" x="0px" y="0px" width="2260px"
	 height="770px" viewBox="0 0 2260 770" style="enable-background:new 0 0 2260 770;" xml:space="preserve">
<style type="text/css">
	.st0{fill:#FFFFFF;}
	.st1{fill:none;stroke:#FFFFFF;stroke-width:9;stroke-miterlimit:10;}
	.st2{fill:none;stroke:#FFFFFF;stroke-width:2;stroke-miterlimit:10;}
	.st3{fill:none;stroke:#FFFFFF;stroke-width:10;stroke-miterlimit:10;}
	.st4{font-family:'Impact';}
	.st5{font-size:42.883px;}
	.st6{letter-spacing:4;}
	.st7{font-family:'Kefa-Regular';}
	.st8{font-size:190px;}
</style>
<g id="Layer_1">
	<g>
		<g>
			<path class="st0" d="M1226.88,312.98c-0.17-1.55-0.62-2.04-1.86-1.77c-2.53,0.53-4.64,1.69-5.46,4.39
				c-0.07,0.24-0.12,0.49-0.18,0.74c-0.68,2.57-1.32,5.11-3.74,6.78c-0.84,0.58-1.31,1.68-2.03,2.66c-0.57,0.09-1.25,0.19-2.08,0.31
				c-0.82,1.01-1.71,2.11-2.53,3.13c-0.83-0.07-1.39-0.12-2.11-0.18c-1.69,1.21-2.1,3.62-4.07,4.97c0-0.85,0-1.5,0-2.28
				c-1.45,0.39-2.13,1.5-3.01,2.36c-0.81,0.79-1.63,1.58-2.49,2.31c-0.29,0.24-0.75,0.28-1.59,0.56c0.47-1.04,0.76-1.68,1.13-2.49
				c-0.41,0.04-0.79-0.03-1.02,0.13c-1.05,0.71-2.09,1.43-3.07,2.24c-2,1.65-3.89,3.43-5.95,5c-1.28,0.99-2.78,1.7-4.37,2.66
				c-0.18-1.94,1.96-2.02,2.22-3.55c-0.33,0.05-0.63,0.01-0.84,0.13c-3.85,2.3-7.68,4.64-11.54,6.93c-0.98,0.58-2.02,1.04-3.05,1.53
				c-4.79,2.3-9.58,4.62-14.39,6.88c-0.8,0.38-1.66,0.95-2.72,0.29c0.34-0.8,1.03-0.97,1.64-1.24c1.51-0.66,3.05-1.24,4.54-1.95
				c3.02-1.44,6.06-2.86,8.99-4.47c1.28-0.7,2.32-1.85,3.79-3.07c-0.76-0.12-1.18-0.33-1.39-0.21c-2.15,1.31-4.57,1.76-6.93,2.45
				c-2.66,0.78-5.18,2-7.78,3.01c-1.71,0.66-3.41,1.35-5.15,1.91c-0.66,0.21-1.43,0.1-2.19-0.04c1.29-0.98,2.59-1.8,4.14-2.2
				c1.83-0.48,3.66-0.99,5.43-1.64c1.6-0.59,3.13-1.35,4.66-2.11c3.63-1.79,7.26-3.57,10.83-5.48c1.13-0.6,2.06-1.57,3.08-2.37
				c-0.04-0.12-0.09-0.24-0.13-0.36c-0.73,0.14-1.47,0.28-2.65,0.51c0.55-0.7,0.79-1.23,1.2-1.48c0.9-0.57,1.85-1.1,2.84-1.47
				c1.73-0.64,4.09-2.01,5.42-3.32c-0.8-0.57-0.8-0.57-2.23-0.66c2.09-1.35,4.02-2.6,6.01-3.89c-0.2-0.45-0.35-0.77-0.55-1.2
				c1.3-1.66,3.52-2.11,5.05-3.59c0.11-0.52,0.22-1.08,0.3-1.5c2.88-3.26,6.48-5.4,9.97-7.75c-0.17-0.6-0.3-1.06-0.46-1.63
				c0.15-0.1,0.29-0.24,0.46-0.32c1.43-0.68,2.86-1.35,4.28-2.04c0.91-0.44,1.79-0.93,2.69-1.41c1.53-0.82,2.25-2.1,2.36-3.84
				c0.1-1.58,0.45-3.13,1.29-4.52c0.33-0.55,0.65-1.13-0.01-1.78c-0.93-0.29-1.82,0.12-2.64,0.55c-1.92,1-3.84,0.66-5.71,0
				c-0.73-0.26-1.49-0.83-1.91-1.47c-0.83-1.26-1.59-2.6-2.08-4.02c-1.13-3.29-2.09-6.63-3.09-9.96c-0.18-0.6-0.26-1.23-0.32-1.86
				c-0.25-2.73-1.07-5.15-3.26-7.03c-1.17-1.01-2.08-2.33-2.93-3.65c-1.63-1.4-3.27-2.8-5-4.29c0.66-0.55,1.12-0.94,1.59-1.34
				c-0.24-1.65-2.72-0.56-2.78-2.53c0.82-0.2,1.67-0.42,2.78-0.7c-1.3-0.97-2.8-1.22-3.48-2.66c2.05-1.22,3.61,1.18,5.87,0.68
				c-1.37-1.55-3.42-1.76-4.28-3.48c1.17-0.75,2.33,0.07,3.9,0.11c-1.2-1.12-2.06-1.92-2.92-2.72c0.08-0.15,0.17-0.29,0.25-0.44
				c2.92-0.24,5.25,2.01,8.18,2.3c-0.1-1.34-1.2-1.74-1.76-2.51c-0.52-0.71-1.79-0.8-1.77-1.98c0.64-0.63,1.27-0.31,1.8-0.03
				c1,0.53,1.96,1.15,2.91,1.77c1.58,1.05,3.13,2.15,4.72,3.18c0.33,0.22,0.78,0.26,1.47,0.47c-0.38-2.64-2.94-3.44-3.59-5.64
				c0.57,0.34,1.16,0.64,1.69,1.02c2.23,1.62,3.96,3.72,5.55,5.92c1.1,1.52,2.47,2.69,3.91,3.84c1.07,0.87,2.08,1.84,3.01,2.85
				c1.24,1.35,2.5,2.71,3.54,4.21c0.89,1.28,1.51,2.75,2.19,4.16c0.71,1.48,1.33,3,2.01,4.5c0.63,1.4,1.84,2.22,3.09,2.98
				c1.06,0.65,2.22,0.56,3.32,0.23c1.09-0.32,2.17-0.73,3.16-1.27c2.17-1.17,4.43-2.25,6.39-3.72c2.79-2.09,4.29-4.92,3.52-8.58
				c-0.05-0.24-0.04-0.5-0.07-1.03c1.31-1.76,2.61-3.8,4.2-5.58c2.22-2.48,5.95-2.28,8.21,0.19c0.66,0.71,1.45,1.31,2.25,2.01
				c-0.34,0.3-0.49,0.52-0.7,0.62c-1.9,0.9-2.97,2.5-3.74,4.36c-0.19,0.47-0.38,0.98-0.71,1.33c-1.44,1.51-1.66,3.36-1.62,5.3
				c0.06,3.32-0.49,6.56-1.39,9.74c-0.48,1.7-1.15,3.35-1.7,5.03c-0.15,0.47-0.21,0.97-0.34,1.57c1.37,1.17,2.74,1.91,4.64,1.51
				c1.6-0.34,3.25-0.43,4.89-0.62c1.96-0.23,3.64,0.64,5.16,1.63c2.73,1.77,5.82,2.48,8.87,3.24c2.37,0.59,3.89,2.09,5.69,3.89
				c-1.86-0.23-3.1-1.94-5.15-0.93c1.25,1.51,2.51,2.79,3.93,3.92c1.15,0.91,1.74,2.08,2,3.72c-1.76-0.61-2.73-2.04-4.17-2.83
				c-0.56,0.6-0.28,1.09,0.04,1.56c0.56,0.84,1.2,1.64,1.69,2.52c0.31,0.56,0.42,1.24,0.75,2.29c-2.25-1.2-3.05-3.56-5.2-4.07
				c-0.68,0.9-0.08,1.38,0.21,2c0.73,1.53,1.33,3.11,1.95,4.69c0.07,0.17-0.11,0.43-0.28,1.02c-1.21-1.78-2.24-3.3-3.47-5.12
				c-0.27,0.71-0.54,1.06-0.47,1.32c0.23,0.91,0.58,1.8,0.89,2.7c0.2,0.58,0.64,1.15-0.03,1.84c-1.41,0.07-1.62-1.84-3.06-1.96
				c-0.22,0.36-0.47,0.77-0.78,1.3c-0.66-0.43-1.26-0.82-1.97-1.28c-0.4,0.56-0.75,1.06-1.15,1.63c-0.49-0.23-0.98-0.46-1.51-0.71
				c-0.35,0.19-0.69,0.35-1,0.56c-1.07,0.69-2.19,0.7-3.22,0.03c-0.84-0.55-1.63-0.6-2.52-0.29c-1.85,0.65-3.65,0.66-5.58,0.12
				c-1.16-0.33-2.54-0.26-3.75-0.01c-3.72,0.76-7.44,0.53-11.15,0.15C1228.38,315.19,1227.14,314.66,1226.88,312.98z"/>
			<path class="st0" d="M1170.75,329.18c0.02-0.02,0.08,0.05,0.08,0.05S1170.73,329.2,1170.75,329.18z"/>
			<path class="st0" d="M1056.06,278.55c1.23-0.16,2.32-0.21,3.37-0.43c1.54-0.31,3.08-0.67,4.58-1.14
				c1.46-0.45,2.91-0.77,4.45-0.82c3.57-0.12,7.06,0.36,10.54,1.1c2.1,0.45,4.26,0.58,6.36,1.03c2.82,0.6,3.72,1.74,3.9,4.57
				c0.02,0.38-0.07,0.79,0.06,1.13c1.08,2.97,0.2,5.76-0.78,8.51c-0.86,2.42-0.81,4.8-0.32,7.29c0.34,1.72,1.25,2.71,2.83,3.21
				c1.39,0.44,2.77,0.91,4.19,1.23c2.23,0.52,3.33,1.95,3.55,4.13c0.24,2.39,0.45,4.79,0.59,7.19c0.53,8.85,1.3,17.67,2.38,26.47
				c0.13,1.05,0.02,2.14,0.02,2.99c-1.2,2.01-2.3,3.85-3.36,5.62c-2.39,0.93-3.54,0.93-5.17-0.03c-0.19-1.31,0.74-2.16,1.6-2.77
				c2-1.42,2.53-3.32,2.51-5.61c-0.05-8.59-0.9-17.06-3.32-25.34c-0.28-0.97-0.68-1.91-1.11-2.82c-0.56-1.19-1.49-2.07-2.74-2.5
				c-4.03-1.37-8.2-2.14-12.42-2.65c-0.34-0.04-0.71,0.13-1.23,0.24c0.34,2.12,2.53,2.91,3.18,4.93c-0.19,0.46-0.37,1.14-0.73,1.71
				c-1.48,2.31-2.42,4.86-3.48,7.37c-1.44,3.38-3.06,6.68-4.39,10.1c-1.15,2.94-1.99,6.01-3.02,9c-0.26,0.75-0.57,1.61-1.13,2.11
				c-1.48,1.3-2.51,2.83-3.11,4.68c-0.08,0.23-0.24,0.44-0.42,0.76c-1.76,0.64-3.59,1.26-5.61,1.18c-0.39-1.15,0.3-1.81,0.77-2.51
				c1.54-2.32,3.29-4.52,4.6-6.97c1.58-2.95,2.94-6.03,4.1-9.17c1.43-3.86,2.49-7.85,3.12-11.93c0.07-0.44,0.07-0.91,0.26-1.3
				c0.96-2,0.27-3.77-0.93-5.31c-1.36-1.74-2.93-3.31-4.45-4.93c-0.65-0.69-1.45-0.9-2.43-0.68c-2.27,0.52-4.54,1.17-6.85,1.39
				c-4.21,0.4-8.46,0.53-12.69,0.78c-0.87,0.05-1.74,0.11-2.76,0.18c-0.26,0.82-0.5,1.51-0.7,2.22c-0.48,1.7-0.84,3.45-1.44,5.11
				c-0.47,1.27-0.76,2.52-0.76,3.87c-0.01,1.58-0.35,3.17-0.25,4.73c0.35,5.43,0.75,10.85,1.3,16.26c0.18,1.77,0.06,3.23-1.38,4.45
				c-0.51,0.43-0.92,1.06-1.21,1.67c-0.78,1.65-2.05,2.32-3.83,2.14c-0.91-0.1-1.9,0.22-2.76-0.45c-0.02-1.06,0.73-1.6,1.36-2.18
				c0.56-0.51,1.21-0.92,1.76-1.44c1.52-1.44,2.15-3.22,1.99-5.32c-0.25-3.28-0.4-6.57-0.69-9.84c-0.22-2.46-0.59-4.9-0.88-7.35
				c-0.1-0.88-0.16-1.76-0.28-2.64c-0.12-0.79-0.11-1.67-1.11-2.11c-1.09,0.42-1.33,1.45-1.54,2.4c-0.42,1.91-0.74,3.85-1.09,5.78
				c-0.73,4.05-1.48,8.09-2.17,12.15c-0.16,0.93,0,1.9-0.12,2.84c-0.09,0.73-0.19,1.55-0.59,2.13c-1.22,1.76-2.58,3.42-4.09,5.37
				c-1.73,0.14-3.74,1.25-6.04,0.08c0.32-0.52,0.47-0.97,0.77-1.2c0.84-0.66,1.74-1.26,2.64-1.84c1.27-0.82,2.29-1.84,2.57-3.37
				c1.08-5.79,2.12-11.58,3.16-17.37c0.08-0.43,0.1-0.88,0.16-1.32c0.3-2.13,0.52-4.24,0.38-6.42c-0.18-2.83-0.04-5.67-0.04-8.78
				c-0.36-0.14-0.9-0.46-1.49-0.56c-2.21-0.4-3.96-1.56-5.57-3.07c-1.33-1.25-2.82-2.33-4.2-3.53c-1.05-0.91-2.13-1.82-3.04-2.86
				c-1.71-1.95-3.44-3.9-4.93-6.03c-1.95-2.8-3.77-5.7-5.46-8.66c-0.88-1.54-2.09-2.29-3.72-2.6c-0.37-0.07-0.75-0.12-1.13-0.18
				c-2.91-0.44-4.19-2.22-3.74-5.3c1.74-1.55,4.27-2.34,5.54-4.87c-0.61-0.3-1.03-0.52-1.46-0.71c-1.16-0.5-2.33-0.98-3.48-1.49
				c-2.03-0.9-3.12-2.49-3.44-4.9c0.35-0.38,0.8-0.86,1.33-1.43c1.17,0.48,2.23,0.91,3.43,1.41c0.1-1.06-0.53-1.36-0.97-1.74
				c-2.19-1.92-4.46-3.75-6.59-5.73c-2.92-2.73-3.96-6.22-3.73-10.14c0.01-0.16,0.17-0.31,0.32-0.58c0.75,0.49,0.81,1.27,1.01,1.94
				c0.64,2.13,1.45,4.19,2.83,5.97c0.58,0.75,1.17,1.56,2.35,1.16c0.78-0.69,0.59-1.63,0.58-2.49c-0.06-3.06,0.43-6.06,1.02-9.04
				c0.13-0.63,0.08-1.41,0.89-1.85c0.62,0.56,0.42,1.28,0.39,1.93c-0.2,3.85-0.46,7.7-0.62,11.56c-0.1,2.51,1.03,3.86,3.56,4.25
				c1.28-3.34,0.13-6.16-1.78-8.99c0.57,0.15,1.14,0.3,1.69,0.45c0.95-0.35,0.77-1.2,0.95-1.91c0.53-2.14,1.08-4.28,1.7-6.4
				c0.16-0.55,0.6-1.01,0.9-1.52c0.14,0.05,0.29,0.1,0.43,0.16c-0.19,1.3-0.38,2.61-0.58,4c0.68,0.23,1.17,0.39,1.78,0.6
				c-1.18,2.4-2.5,4.67-1.58,7.36c1.35,0.36,1.86-0.61,2.52-1.21c0.68-0.62,1.29-1.32,1.92-1.98c0.11,0.06,0.22,0.12,0.33,0.18
				c-0.08,0.37-0.07,0.8-0.25,1.1c-0.71,1.2-1.5,2.34-2.23,3.53c-0.96,1.56-2,3.09-2.79,4.73c-0.85,1.75-0.32,2.99,1.45,3.94
				c0.32-0.39,0.66-0.8,1.17-1.41c0.44,1.19,0.8,2.17,1.16,3.15c2.2,1.35,4.44,1.34,6.85,0.67c0.35-1.01,0.69-1.96,1.08-3.07
				c0.53,0.41,0.99,0.77,1.53,1.19c0.38-0.1,0.85-0.13,1.21-0.33c1.65-0.94,3.32-1.86,4.9-2.91c2.02-1.34,2.33-3.51,0.77-5.41
				c-0.72-0.88-1.61-1.61-2.43-2.4c-1.5-1.46-3.04-2.87-4.48-4.38c-0.81-0.85-1.51-1.84-1.57-3.23c0.97,0.04,1.33,0.76,1.84,1.25
				c1.77,1.71,3.52,3.45,5.33,5.13c0.42,0.39,1.02,0.58,1.83,1.03c0.18-0.99,0.37-1.64,0.39-2.29c0.12-3.02-0.7-5.89-1.4-8.78
				c-0.11-0.47-0.23-0.95-0.2-1.47c1.19,1.77,1.9,3.76,2.53,5.76c0.61,1.94,1.02,3.96,1.6,6.29c1.29-1.6,0.84-3.09,0.94-4.46
				c0.11-1.51,0.27-3.02,0.24-4.53c-0.03-1.43-0.27-2.86-0.45-4.7c1.95,2.41,1.74,5.17,2.8,7.53c-0.13,1.07-0.33,2.19-0.37,3.33
				c-0.04,0.92,0.11,1.86,0.17,2.79c0.02,0.31,0.1,0.65,0.01,0.94c-0.89,3.04-1.7,6.11-4.18,8.37c-0.63,0.58-1.35,1.14-1.48,2.18
				c1.03,0.54,1.75-0.05,2.48-0.48c0.8-0.48,1.57-0.87,2.41-0.12c0.51,0.85,0.19,1.58-0.3,2.29c-2.22,3.23-5,5.7-8.98,6.51
				c-0.31,0.06-0.61,0.17-0.9,0.28c-0.1,0.04-0.16,0.18-0.34,0.39c0.19,0.31,0.34,0.75,0.63,1.01c1.58,1.37,3.15,2.75,4.82,4
				c0.67,0.5,1.6,0.93,2.42,0.94c3.15,0.03,6.27,0.52,9.46,0.16c4.08-0.46,8.2-0.27,12.32,0.11c2.3,0.21,4.67-0.2,6.99-0.45
				C1052.41,279.27,1054.15,278.88,1056.06,278.55z"/>
			<path class="st0" d="M1251.8,510.03c0.6,1.86,1.16,3.58,1.72,5.31c0.31,0.94,0.98,1.49,1.93,1.74c0.88,0.23,1.77,0.44,2.61,0.77
				c1.52,0.6,2.04,1.62,1.86,3.46c-0.25,0.12-0.54,0.36-0.84,0.39c-1.8,0.14-3.61,0.3-5.42,0.3c-1.77,0-3.19-0.68-3.83-2.52
				c-0.45-1.28-1.06-2.51-1.44-3.81c-0.63-2.14-1.44-4.18-2.75-6.01c-1.01-1.42-1.45-2.98-1.68-4.73c-0.33-2.52-1.07-4.98-1.68-7.46
				c-0.1-0.4-0.42-0.73-0.77-1.32c-0.26,0.52-0.45,0.78-0.54,1.07c-0.41,1.36-0.86,2.71-1.14,4.09c-0.17,0.81-0.2,1.71-0.02,2.5
				c0.43,1.87,1.07,3.7,1.55,5.57c0.42,1.64,1.21,2.81,2.91,3.45c1.9,0.71,2.43,1.89,1.96,3.88c-1.67,0.35-3.3,1.15-5.18,1.01
				c-1.1-0.08-1.91-0.54-2.6-1.39c-1.07-1.32-1.45-2.94-2.07-4.45c-0.97-2.36-1.78-4.81-2.97-7.05c-1.11-2.08-1.03-4.09-0.67-6.26
				c0.48-2.9,0.83-5.82,1.25-8.74c0.18-1.29,0.43-2.57,0.57-3.87c0.26-2.54,0.48-5.08,0.67-7.62c0.04-0.5-0.03-1.03-0.17-1.51
				c-0.35-1.24-0.92-1.6-2.24-1.55c-1.58,0.06-3.16,0.03-4.73,0.14c-2.15,0.15-4.13-0.52-6.15-1.07c-1.68-0.45-3.44-0.64-5.11-1.1
				c-2.12-0.59-4.19-1.35-6.3-2c-1.67-0.52-3.35-1.04-5.05-1.45c-1.21-0.29-2.23,0.06-3.26,0.92c-2.15,1.8-3.44,4.2-4.93,6.46
				c-1.62,2.46-3.02,5.07-5.03,7.27c-2.06,2.25-4.39,4.07-7.27,5.19c-0.88,0.34-1.69,0.91-2.43,1.5c-1.81,1.46-3.57,2.99-5.35,4.48
				c-0.82,0.69-1.26,1.53-1.37,2.63c-0.22,2.37-0.56,4.72-0.81,7.09c-0.04,0.42,0.11,0.86,0.17,1.22c1.43,0.99,3.83,0.68,3.75,3.12
				c-1.14,1.7-2.61,2.43-4.56,2.22c-0.84-0.09-1.69-0.01-2.44-0.01c-1.19-1-1.41-2.65-2.92-3.34c-0.22,0.34-0.53,0.62-0.6,0.96
				c-0.36,1.71-0.83,3.43-0.92,5.16c-0.09,1.59,0.75,2.27,2.26,2.39c2.02,0.16,2.11,0.24,2.64,2.17c0.1,0.38,0.23,0.75,0.4,1.33
				c-0.37,0.26-0.73,0.61-1.16,0.77c-1,0.38-2.03,0.68-3.05,1c-0.32,0.1-0.66,0.18-0.99,0.25c-2.57,0.55-3.85-0.42-4.13-3.05
				c-0.07-0.66-0.31-1.31-0.55-1.94c-0.36-0.95-0.79-1.88-1.15-2.75c1.46-5.99,2.89-11.86,4.33-17.74c0.41-1.09,1.97-1.48,1.85-3.15
				c-0.36,0.04-0.8-0.03-0.92,0.13c-0.88,1.15-1.69,2.35-2.94,4.12c-0.82,0.78-2.28,1.91-4.37,2.36c-0.84-0.41-1.92-0.95-2.95-1.45
				c-1.02,0.29-1.93,0.55-2.94,0.84c-0.49-1.64-1.55-2.01-3.05-1.8c-0.74,0.1-1.52-0.15-2.55-0.27c2.11-1.26,4.36-1.59,5.77-3.29
				c0.6-1.05,1.21-2.11,1.83-3.19c1.75-0.79,3.52-1.56,5.25-2.39c2.1-1.01,3.76-2.48,4.68-4.68c0.06-0.16,0.14-0.33,0.26-0.43
				c1.6-1.4,1.68-3.24,1.5-5.02c0.71-1.8,1.51-3.45,2.01-5.17c0.42-1.44,0.62-2.98,0.69-4.48c0.05-1.16,0.24-2.23,0.61-3.31
				c0.53-1.55,0.98-3.13,1.48-4.7c0.12-0.38,0.29-0.74,0.44-1.1c0.45-1.08,0.91-2.15,1.38-3.25c0.92-1.09,1.91-2.23,2.85-3.39
				c0.56-0.69,1.24-1.1,2.11-1.32c2.57-0.67,5.13-1.41,7.68-2.15c0.48-0.14,1-0.31,1.39-0.62c2.09-1.67,4.68-1.88,7.14-2.5
				c0.82-0.21,1.67-0.37,2.41-0.75c1.95-1,4.01-1.4,6.18-1.67c3.06-0.38,6.24-0.34,9.07-1.88c0.19-0.1,0.43-0.15,0.65-0.17
				c2.15-0.14,4.29-0.31,6.44-0.39c1.75-0.07,3.52,0.21,5.2-0.55c0.34-0.15,0.78-0.07,1.18-0.07c2.95,0.01,5.9-0.03,8.85,0.06
				c1.39,0.04,2.46-0.29,3.05-1.72c1.19,0,2.36,0,3.79,0c0.83-1.71,3.11-2.66,3.36-5.03c-1.2-1.52-3.52-0.91-4.58-2.68
				c0.19-0.31,0.36-0.66,0.61-0.94c1.87-2.05,3.41-4.42,5.74-6.02c0.74-0.51,1.52-1.02,2.36-1.33c1.01-0.37,1.72-1.03,2.41-1.8
				c1.21-1.35,2.47-2.66,3.73-3.96c0.64-0.66,1.43-1.03,2.36-1.25c1.89-0.44,3.6-1.16,5-2.68c1.45-1.58,3.16-2.92,4.77-4.35
				c0.15-0.14,0.4-0.16,0.58-0.23c1.6,1.54,1.88,3.34,0.79,5.25c-0.99,1.73-1.93,3.47-2.24,5.48c-0.04,0.28-0.12,0.56-0.15,0.84
				c-0.2,2.23,1,3.4,3.18,2.94c1.15-0.24,2.25-0.75,3.34-1.22c0.74-0.32,0.72-0.38,1.73-0.08c0.52,1.77,0.19,2.33-1.27,3.34
				c-1.86,1.29-3.66,2.68-5.34,4.19c-1.31,1.19-2.19,2.73-2.68,4.48c-0.33,1.18-0.81,2.31-1.43,4.01c-0.05,1.48-0.06,3.57-0.23,5.65
				c-0.11,1.29-0.43,2.57-0.73,3.83c-0.94,3.86-1.98,7.67-4.62,10.82c-0.87,1.04-1.3,2.28-1.55,3.69c-0.28,1.57-1,3.14-1.85,4.52
				c-1.43,2.3-3.12,4.44-4.68,6.66c-1.33,1.89-1.61,4.12-1.78,6.31c-0.14,1.8,0.06,3.62,0.19,5.43c0.31,4.36,0.62,8.71,1.03,13.06
				c0.3,3.27,0.73,6.53,1.13,9.79C1251.39,508.93,1251.61,509.41,1251.8,510.03z"/>
			<path class="st0" d="M1009.51,425.22c2.44,0.41,4.76,0.8,7.06,1.22c3.32,0.61,6.64,1.23,9.95,1.86
				c7.17,1.38,14.24,3.12,20.91,6.17c1.3,0.59,2.4,0.54,3.56-0.31c1.06-0.78,2.22-1.44,3.33-2.14c0.2-0.13,0.44-0.22,0.69-0.34
				c0.41,0.1,0.83,0.2,1.33,0.32c1.28-0.75,2.57-1.52,3.93-2.32c0.37,0.43,0.68,0.78,1.01,1.16c0.54,0,1.06,0,1.69,0
				c0.22,0.34,0.48,0.74,0.77,1.19c0.5,0.12,1.02,0.24,1.52,0.35c0.71,1.88,0.71,1.88,1.76,2.67c0.15,0.9,0.15,1.95,1.29,2.39
				c0.08,1.12,0.15,2.23,1.33,2.74c0.13,1.08-0.2,2.31,1.15,2.75c0,0.76,0,1.39,0,1.89c0.57,0.67,1.05,1.25,1.77,2.09
				c0.59,0.27,1.49-0.05,2.38-0.24c1.06-0.22,2.07-0.46,3.1,0.25c0.38,0.26,1.03,0.16,1.56,0.15c0.97-0.02,1.94-0.08,2.9-0.13
				c1.5,2.33,3.08,4.56,3.41,7.19c0.41,3.33,1.87,6.34,2.46,9.59c0.3,1.67,0.31,3.32-0.08,4.93c-0.37,1.53-0.65,3.03-0.61,4.62
				c0.15,5.11-0.18,10.18-1.84,15.08c-1.23,3.63-2.95,7.04-5,10.27c-1.83,2.88-4.39,5-7.37,6.57c-1.21,0.64-2.02,1.44-2.43,2.75
				c-0.31,0.97-0.81,1.89-1.22,2.82c-0.55,1.25-1.13,2.49-1.66,3.75c-0.51,1.22-0.61,1.37-1.76,2.03c-1.7-0.93-3.49-1.91-5.48-3
				c-0.75,0.08-1.38,0.82-2.1,1.37c-0.5,0.38-0.94,0.86-1.35,1.35c-2.99,3.53-6.52,6.46-10.08,9.38c-2.08,1.71-4.29,3.07-6.8,3.97
				c-0.71,0.26-1.47,0.41-2.39,0.67c0-0.62-0.09-1.01,0.01-1.34c1.82-5.5,1.45-11.1,0.83-16.72c-0.19-1.75-0.29-3.51-0.47-5.26
				c-0.27-2.67-1.45-4.95-3.16-6.97c-0.79-0.92-1.58-1.85-2.32-2.72c0.23-0.79,0.78-0.9,1.3-0.98c2.41-0.39,4.82-0.82,7.25-1.08
				c1.35-0.14,2.74-0.02,4.1,0.08c4.29,0.3,8.58,0.66,12.87,0.98c1.65,0.12,3.01-0.72,4.39-1.46c0.23-0.12,0.36-0.43,0.5-0.61
				c-0.09-0.88-0.72-1.22-1.29-1.59c-2.91-1.9-5.77-3.88-8.75-5.66c-3.96-2.36-7.68-5.05-11.41-7.75c-0.71-0.52-1.44-1.02-2.17-1.5
				c-0.35-0.23-0.75-0.38-1.44-0.73c0.13,0.81,0.15,1.33,0.29,1.81c0.62,2.19,0.73,4.44,0.82,6.68c0.02,0.57,0.12,1.2-0.75,1.64
				c-0.32-0.28-0.78-0.55-1.05-0.95c-0.93-1.38-1.77-2.82-2.68-4.21c-0.3-0.46-0.69-0.86-1.13-1.4c-0.45,0.64-0.77,1.09-1.1,1.56
				c-0.8-0.16-1.08-0.78-1.35-1.32c-1.21-2.4-2.42-4.8-3.55-7.24c-0.69-1.51-1.19-3.11-1.86-4.63c-0.26-0.59-0.68-1.22-1.2-1.58
				c-5.2-3.59-10.24-7.39-15.13-11.38c-3.9-3.19-7.77-6.42-11.65-9.64c-2.46-2.04-4.55-4.44-6.46-6.99
				c-0.43-0.57-0.75-1.26-0.99-1.95c-0.31-0.88-0.21-1.74,0.69-2.51c0.79-0.04,1.7-0.08,2.78-0.13c0.04-0.45,0.12-0.86,0.11-1.28
				c-0.05-1.81-0.15-3.62-0.2-5.42c-0.01-0.48,0.02-0.98,0.13-1.46c0.29-1.29,0.88-1.86,2.19-1.98c1.31-0.12,2.64-0.2,3.95-0.12
				C1003.34,424.68,1006.36,424.97,1009.51,425.22z"/>
		</g>
		<circle class="st1" cx="1132.44" cy="386.91" r="217.82"/>
		<line class="st2" x1="1133.21" y1="169.09" x2="1133.21" y2="604.73"/>
		<line class="st2" x1="1351.04" y1="386.91" x2="915.39" y2="386.91"/>
		<line class="st3" x1="1133.21" y1="169.09" x2="1133.21" y2="319.31"/>
		<line class="st3" x1="1133.21" y1="454.51" x2="1133.21" y2="604.73"/>
		<line class="st3" x1="1200.81" y1="386.91" x2="1351.04" y2="386.91"/>
		<line class="st3" x1="915.39" y1="386.91" x2="1065.62" y2="386.91"/>
		<text transform="matrix(1 0 0 1 1095.6572 402.7769)" class="st0 st4 st5 st6">1</text>
		<text transform="matrix(1 0 0 1 1140.7261 402.7759)" class="st0 st4 st5">26</text>
	</g>
</g>
<g id="Layer_2">
	<text transform="matrix(0.75 0 0 1 1389.1783 444.7308)" class="st0 st7 st8">TAXIDERMY</text>
	<text transform="matrix(0.79 0 0 1 117.7958 446.9579)" class="st0 st7 st8">DOMINION</text>
</g>
</svg>
